<?xml version="1.0" encoding="utf-8" ?>
<svg baseProfile="full" height="100%" version="1.1" width="100%" xmlns="http://www.w3.org/2000/svg" xmlns:ev="http://www.w3.org/2001/xml-events" xmlns:xlink="http://www.w3.org/1999/xlink"><defs /><path d="M183,225 L 182 , 226 L 181 , 226 L 181 , 239 L 180 , 240 L 180 , 241 L 181 , 242 L 181 , 243 L 180 , 244 L 180 , 245 L 181 , 246 L 182 , 246 L 183 , 247 L 183 , 249 L 182 , 250 L 181 , 250 L 181 , 252 L 180 , 253 L 180 , 269 L 179 , 270 L 179 , 276 L 180 , 277 L 180 , 292 L 179 , 293 L 179 , 299 L 178 , 300 L 178 , 305 L 179 , 306 L 179 , 320 L 178 , 321 L 178 , 322 L 179 , 323 L 179 , 329 L 178 , 330 L 178 , 333 L 177 , 334 L 177 , 335 L 178 , 336 L 178 , 342 L 179 , 343 L 178 , 344 L 178 , 350 L 177 , 351 L 177 , 364 L 176 , 365 L 176 , 392 L 177 , 393 L 177 , 394 L 178 , 395 L 178 , 400 L 177 , 401 L 177 , 411 L 176 , 412 L 176 , 416 L 175 , 417 L 175 , 420 L 176 , 421 L 176 , 427 L 177 , 428 L 177 , 435 L 176 , 436 L 176 , 449 L 177 , 450 L 177 , 454 L 176 , 455 L 176 , 484 L 177 , 485 L 177 , 491 L 176 , 492 L 176 , 500 L 177 , 501 L 177 , 503 L 176 , 504 L 176 , 508 L 175 , 509 L 175 , 513 L 174 , 514 L 174 , 518 L 173 , 519 L 173 , 523 L 172 , 524 L 172 , 527 L 171 , 528 L 171 , 536 L 176 , 541 L 176 , 542 L 177 , 543 L 176 , 544 L 176 , 545 L 175 , 546 L 174 , 545 L 173 , 546 L 173 , 550 L 174 , 551 L 174 , 552 L 176 , 554 L 178 , 554 L 179 , 553 L 179 , 552 L 180 , 551 L 180 , 550 L 181 , 549 L 181 , 548 L 184 , 545 L 184 , 543 L 185 , 542 L 185 , 541 L 184 , 540 L 184 , 535 L 185 , 534 L 186 , 534 L 185 , 533 L 185 , 532 L 184 , 532 L 183 , 531 L 184 , 530 L 185 , 530 L 184 , 530 L 182 , 528 L 182 , 522 L 181 , 521 L 182 , 520 L 182 , 512 L 183 , 511 L 183 , 510 L 182 , 509 L 182 , 508 L 183 , 507 L 183 , 506 L 182 , 505 L 182 , 504 L 183 , 503 L 183 , 415 L 184 , 414 L 183 , 413 L 183 , 407 L 182 , 406 L 182 , 402 L 183 , 401 L 183 , 384 L 182 , 383 L 182 , 377 L 183 , 376 L 182 , 375 L 182 , 369 L 183 , 368 L 183 , 364 L 184 , 363 L 184 , 358 L 183 , 357 L 183 , 356 L 184 , 355 L 184 , 352 L 185 , 351 L 185 , 344 L 184 , 343 L 184 , 330 L 185 , 329 L 185 , 328 L 184 , 327 L 184 , 321 L 185 , 320 L 185 , 300 L 186 , 299 L 185 , 298 L 185 , 295 L 186 , 294 L 186 , 288 L 185 , 287 L 185 , 275 L 187 , 273 L 189 , 275 L 189 , 282 L 190 , 283 L 190 , 286 L 191 , 287 L 191 , 298 L 193 , 300 L 193 , 302 L 194 , 303 L 194 , 310 L 195 , 311 L 195 , 313 L 196 , 314 L 196 , 318 L 197 , 319 L 197 , 329 L 198 , 330 L 198 , 332 L 199 , 333 L 199 , 336 L 200 , 337 L 200 , 341 L 201 , 342 L 201 , 347 L 202 , 348 L 202 , 355 L 203 , 356 L 203 , 358 L 204 , 359 L 204 , 360 L 205 , 361 L 205 , 373 L 206 , 374 L 206 , 377 L 207 , 378 L 207 , 381 L 208 , 382 L 208 , 386 L 209 , 387 L 209 , 390 L 210 , 391 L 210 , 393 L 211 , 394 L 211 , 403 L 212 , 404 L 212 , 407 L 213 , 408 L 213 , 409 L 215 , 411 L 215 , 413 L 216 , 414 L 216 , 415 L 215 , 416 L 216 , 417 L 216 , 426 L 217 , 427 L 217 , 430 L 218 , 431 L 218 , 434 L 219 , 435 L 219 , 439 L 220 , 440 L 220 , 443 L 221 , 444 L 221 , 446 L 222 , 447 L 222 , 455 L 223 , 456 L 223 , 460 L 224 , 461 L 224 , 464 L 225 , 465 L 225 , 466 L 226 , 467 L 226 , 474 L 227 , 475 L 227 , 481 L 228 , 482 L 228 , 488 L 229 , 489 L 229 , 491 L 230 , 492 L 230 , 493 L 231 , 494 L 231 , 497 L 232 , 498 L 232 , 502 L 233 , 503 L 233 , 505 L 234 , 506 L 234 , 507 L 235 , 508 L 235 , 511 L 236 , 512 L 236 , 515 L 237 , 516 L 237 , 518 L 238 , 519 L 238 , 520 L 240 , 522 L 240 , 523 L 241 , 524 L 241 , 526 L 242 , 527 L 242 , 529 L 243 , 530 L 243 , 531 L 246 , 534 L 246 , 535 L 247 , 535 L 249 , 537 L 250 , 537 L 251 , 538 L 256 , 538 L 257 , 537 L 259 , 537 L 260 , 536 L 261 , 536 L 263 , 534 L 263 , 533 L 265 , 531 L 265 , 530 L 268 , 527 L 268 , 526 L 270 , 524 L 270 , 522 L 271 , 521 L 271 , 519 L 272 , 518 L 272 , 516 L 273 , 515 L 273 , 510 L 274 , 509 L 274 , 506 L 275 , 505 L 275 , 502 L 276 , 501 L 276 , 490 L 277 , 489 L 277 , 487 L 278 , 486 L 277 , 485 L 277 , 484 L 278 , 483 L 278 , 481 L 279 , 480 L 281 , 482 L 280 , 483 L 280 , 485 L 281 , 486 L 281 , 491 L 282 , 492 L 282 , 503 L 283 , 504 L 283 , 523 L 284 , 524 L 284 , 526 L 285 , 527 L 285 , 530 L 286 , 531 L 286 , 533 L 287 , 534 L 287 , 535 L 288 , 536 L 288 , 538 L 289 , 539 L 289 , 544 L 290 , 545 L 289 , 546 L 290 , 546 L 291 , 547 L 291 , 548 L 294 , 551 L 294 , 552 L 296 , 554 L 296 , 555 L 298 , 557 L 299 , 557 L 300 , 558 L 301 , 558 L 302 , 559 L 306 , 559 L 307 , 558 L 308 , 558 L 312 , 554 L 312 , 553 L 313 , 552 L 313 , 551 L 314 , 550 L 314 , 549 L 315 , 548 L 315 , 547 L 316 , 546 L 316 , 539 L 317 , 538 L 317 , 535 L 318 , 534 L 318 , 528 L 319 , 527 L 319 , 521 L 320 , 520 L 320 , 510 L 321 , 509 L 321 , 504 L 320 , 503 L 320 , 499 L 321 , 498 L 323 , 498 L 325 , 500 L 325 , 501 L 326 , 502 L 326 , 504 L 327 , 505 L 327 , 507 L 328 , 508 L 328 , 509 L 329 , 510 L 329 , 511 L 330 , 512 L 330 , 513 L 331 , 514 L 331 , 517 L 332 , 518 L 332 , 519 L 333 , 520 L 333 , 521 L 334 , 522 L 334 , 524 L 335 , 525 L 335 , 528 L 336 , 529 L 336 , 530 L 337 , 531 L 337 , 533 L 338 , 534 L 338 , 536 L 339 , 537 L 339 , 541 L 340 , 542 L 340 , 545 L 341 , 546 L 341 , 547 L 342 , 548 L 342 , 549 L 343 , 550 L 343 , 551 L 344 , 552 L 344 , 553 L 347 , 556 L 347 , 557 L 348 , 558 L 348 , 559 L 349 , 560 L 349 , 561 L 351 , 563 L 352 , 563 L 353 , 564 L 354 , 564 L 355 , 565 L 358 , 565 L 359 , 566 L 367 , 566 L 368 , 565 L 369 , 565 L 375 , 559 L 375 , 558 L 377 , 556 L 377 , 555 L 378 , 554 L 378 , 553 L 379 , 552 L 379 , 550 L 380 , 549 L 380 , 548 L 382 , 546 L 382 , 545 L 383 , 544 L 385 , 544 L 388 , 547 L 387 , 548 L 389 , 550 L 388 , 551 L 390 , 553 L 390 , 554 L 393 , 557 L 394 , 557 L 395 , 558 L 401 , 558 L 402 , 557 L 403 , 557 L 406 , 554 L 407 , 554 L 409 , 552 L 412 , 552 L 414 , 554 L 414 , 555 L 415 , 556 L 415 , 557 L 416 , 558 L 416 , 559 L 417 , 560 L 417 , 561 L 418 , 562 L 418 , 563 L 419 , 564 L 419 , 565 L 420 , 566 L 420 , 567 L 421 , 568 L 421 , 569 L 423 , 571 L 424 , 571 L 425 , 572 L 427 , 572 L 428 , 573 L 433 , 573 L 434 , 572 L 435 , 572 L 436 , 571 L 436 , 570 L 438 , 568 L 438 , 567 L 439 , 566 L 439 , 565 L 440 , 564 L 440 , 563 L 441 , 562 L 440 , 561 L 440 , 558 L 442 , 556 L 444 , 558 L 444 , 561 L 445 , 562 L 444 , 563 L 445 , 564 L 445 , 566 L 446 , 567 L 446 , 568 L 447 , 569 L 447 , 570 L 448 , 571 L 448 , 572 L 449 , 573 L 449 , 574 L 450 , 575 L 450 , 578 L 451 , 579 L 451 , 582 L 452 , 583 L 452 , 584 L 453 , 585 L 453 , 586 L 455 , 588 L 456 , 588 L 457 , 589 L 462 , 589 L 463 , 588 L 464 , 588 L 465 , 587 L 466 , 587 L 468 , 585 L 468 , 584 L 469 , 583 L 469 , 582 L 470 , 581 L 470 , 580 L 471 , 579 L 471 , 578 L 472 , 577 L 472 , 575 L 473 , 574 L 473 , 570 L 474 , 569 L 474 , 568 L 475 , 567 L 475 , 563 L 476 , 562 L 476 , 559 L 477 , 558 L 477 , 555 L 478 , 554 L 478 , 549 L 479 , 548 L 479 , 543 L 480 , 542 L 480 , 528 L 481 , 527 L 481 , 517 L 482 , 516 L 482 , 495 L 483 , 494 L 483 , 487 L 482 , 486 L 482 , 472 L 481 , 471 L 482 , 470 L 482 , 469 L 481 , 468 L 481 , 465 L 482 , 464 L 482 , 462 L 481 , 461 L 481 , 448 L 480 , 447 L 480 , 442 L 479 , 441 L 479 , 436 L 478 , 435 L 478 , 429 L 479 , 428 L 478 , 427 L 478 , 425 L 477 , 424 L 477 , 423 L 476 , 422 L 476 , 419 L 478 , 417 L 478 , 410 L 477 , 409 L 477 , 404 L 476 , 403 L 476 , 399 L 475 , 398 L 475 , 391 L 474 , 390 L 474 , 379 L 473 , 378 L 473 , 373 L 472 , 372 L 472 , 369 L 471 , 368 L 471 , 358 L 470 , 357 L 470 , 355 L 469 , 354 L 469 , 343 L 468 , 342 L 468 , 333 L 467 , 332 L 467 , 318 L 468 , 317 L 471 , 320 L 471 , 323 L 472 , 324 L 472 , 328 L 473 , 328 L 474 , 329 L 474 , 333 L 473 , 334 L 473 , 335 L 475 , 337 L 475 , 349 L 477 , 351 L 477 , 352 L 478 , 353 L 477 , 354 L 477 , 355 L 476 , 356 L 476 , 359 L 477 , 360 L 477 , 363 L 478 , 364 L 478 , 368 L 479 , 369 L 479 , 371 L 480 , 372 L 480 , 379 L 481 , 380 L 481 , 389 L 482 , 390 L 482 , 391 L 483 , 392 L 483 , 394 L 484 , 395 L 484 , 408 L 485 , 409 L 485 , 414 L 486 , 415 L 486 , 420 L 487 , 421 L 486 , 422 L 487 , 423 L 487 , 427 L 488 , 428 L 488 , 431 L 489 , 432 L 489 , 436 L 488 , 437 L 488 , 441 L 489 , 442 L 489 , 444 L 490 , 445 L 490 , 446 L 491 , 447 L 491 , 448 L 492 , 449 L 492 , 454 L 493 , 455 L 493 , 466 L 494 , 467 L 494 , 468 L 495 , 469 L 495 , 472 L 496 , 473 L 496 , 475 L 497 , 476 L 497 , 483 L 498 , 484 L 498 , 486 L 499 , 487 L 499 , 490 L 500 , 491 L 500 , 494 L 501 , 495 L 501 , 497 L 502 , 498 L 502 , 504 L 503 , 505 L 503 , 510 L 504 , 511 L 504 , 514 L 505 , 515 L 505 , 516 L 506 , 517 L 506 , 518 L 507 , 519 L 507 , 521 L 508 , 522 L 508 , 523 L 509 , 524 L 509 , 526 L 510 , 527 L 510 , 531 L 511 , 532 L 511 , 535 L 512 , 536 L 512 , 537 L 513 , 538 L 513 , 539 L 515 , 541 L 515 , 542 L 517 , 544 L 517 , 545 L 520 , 548 L 522 , 548 L 523 , 549 L 524 , 548 L 529 , 548 L 531 , 550 L 531 , 551 L 533 , 553 L 533 , 554 L 534 , 555 L 534 , 556 L 535 , 557 L 535 , 558 L 536 , 559 L 536 , 561 L 537 , 562 L 537 , 564 L 538 , 565 L 538 , 566 L 539 , 567 L 539 , 568 L 540 , 569 L 540 , 570 L 541 , 571 L 541 , 572 L 542 , 573 L 542 , 574 L 544 , 576 L 544 , 577 L 548 , 581 L 548 , 582 L 549 , 583 L 549 , 584 L 551 , 586 L 551 , 587 L 555 , 591 L 558 , 591 L 560 , 589 L 560 , 587 L 561 , 586 L 561 , 583 L 562 , 582 L 562 , 580 L 563 , 579 L 563 , 577 L 564 , 576 L 564 , 575 L 565 , 574 L 565 , 573 L 566 , 572 L 566 , 566 L 565 , 567 L 564 , 566 L 564 , 562 L 565 , 561 L 565 , 559 L 566 , 558 L 567 , 558 L 567 , 557 L 569 , 555 L 571 , 557 L 570 , 558 L 569 , 558 L 570 , 558 L 571 , 557 L 573 , 559 L 573 , 561 L 574 , 562 L 574 , 566 L 575 , 567 L 575 , 569 L 576 , 570 L 576 , 571 L 577 , 572 L 577 , 573 L 578 , 574 L 578 , 575 L 580 , 577 L 580 , 578 L 585 , 583 L 590 , 583 L 592 , 581 L 592 , 580 L 595 , 577 L 595 , 576 L 596 , 575 L 596 , 574 L 597 , 573 L 597 , 572 L 598 , 571 L 598 , 570 L 599 , 569 L 599 , 568 L 600 , 567 L 600 , 566 L 601 , 565 L 601 , 563 L 602 , 562 L 602 , 561 L 603 , 560 L 603 , 559 L 604 , 558 L 604 , 557 L 605 , 556 L 606 , 556 L 608 , 558 L 608 , 569 L 610 , 571 L 612 , 571 L 613 , 570 L 614 , 570 L 614 , 569 L 615 , 568 L 615 , 556 L 616 , 555 L 616 , 549 L 617 , 548 L 617 , 547 L 621 , 543 L 634 , 543 L 636 , 545 L 637 , 545 L 638 , 546 L 639 , 546 L 640 , 547 L 641 , 547 L 648 , 554 L 649 , 554 L 650 , 555 L 651 , 555 L 654 , 558 L 654 , 559 L 660 , 565 L 661 , 565 L 662 , 566 L 663 , 566 L 665 , 568 L 666 , 568 L 667 , 569 L 669 , 569 L 670 , 570 L 678 , 570 L 679 , 569 L 680 , 569 L 681 , 570 L 682 , 570 L 683 , 571 L 684 , 571 L 685 , 570 L 686 , 570 L 687 , 571 L 689 , 571 L 690 , 572 L 697 , 572 L 698 , 573 L 701 , 573 L 702 , 572 L 708 , 572 L 709 , 571 L 713 , 571 L 714 , 570 L 715 , 570 L 716 , 569 L 717 , 569 L 722 , 564 L 722 , 562 L 723 , 561 L 723 , 560 L 722 , 559 L 722 , 558 L 721 , 558 L 720 , 559 L 719 , 559 L 716 , 562 L 715 , 562 L 714 , 563 L 712 , 563 L 711 , 564 L 700 , 564 L 699 , 563 L 698 , 563 L 696 , 561 L 697 , 560 L 699 , 560 L 698 , 559 L 697 , 559 L 696 , 558 L 690 , 558 L 689 , 557 L 683 , 557 L 682 , 556 L 680 , 556 L 679 , 555 L 674 , 555 L 673 , 554 L 671 , 554 L 670 , 553 L 669 , 554 L 669 , 556 L 670 , 557 L 669 , 558 L 668 , 558 L 667 , 559 L 666 , 558 L 665 , 558 L 664 , 557 L 663 , 557 L 659 , 553 L 659 , 552 L 656 , 549 L 656 , 548 L 655 , 548 L 653 , 546 L 652 , 546 L 649 , 543 L 648 , 543 L 646 , 541 L 645 , 541 L 644 , 540 L 643 , 540 L 642 , 539 L 642 , 538 L 641 , 537 L 642 , 536 L 642 , 535 L 643 , 534 L 644 , 535 L 645 , 534 L 645 , 533 L 643 , 531 L 642 , 531 L 641 , 530 L 640 , 530 L 639 , 531 L 639 , 533 L 637 , 535 L 631 , 535 L 630 , 534 L 624 , 534 L 623 , 535 L 620 , 535 L 617 , 532 L 617 , 521 L 616 , 520 L 616 , 518 L 617 , 517 L 617 , 506 L 618 , 505 L 618 , 483 L 619 , 482 L 619 , 454 L 618 , 453 L 618 , 452 L 619 , 451 L 619 , 434 L 618 , 433 L 619 , 432 L 619 , 426 L 618 , 425 L 618 , 423 L 619 , 422 L 619 , 421 L 618 , 420 L 618 , 416 L 617 , 415 L 617 , 409 L 618 , 408 L 618 , 404 L 617 , 403 L 617 , 389 L 616 , 388 L 616 , 372 L 615 , 371 L 615 , 361 L 614 , 360 L 614 , 352 L 613 , 351 L 613 , 348 L 612 , 347 L 612 , 340 L 611 , 339 L 611 , 337 L 610 , 336 L 610 , 335 L 609 , 334 L 609 , 332 L 608 , 331 L 609 , 330 L 609 , 329 L 610 , 328 L 611 , 329 L 611 , 333 L 612 , 334 L 611 , 333 L 611 , 329 L 610 , 328 L 610 , 319 L 609 , 319 L 608 , 318 L 608 , 308 L 607 , 307 L 607 , 306 L 606 , 305 L 606 , 298 L 605 , 297 L 605 , 290 L 604 , 289 L 604 , 288 L 603 , 287 L 601 , 287 L 600 , 288 L 600 , 293 L 599 , 294 L 599 , 295 L 598 , 296 L 598 , 344 L 599 , 345 L 599 , 357 L 600 , 358 L 600 , 376 L 601 , 377 L 601 , 378 L 600 , 379 L 601 , 380 L 601 , 381 L 600 , 382 L 600 , 397 L 601 , 398 L 601 , 410 L 602 , 411 L 602 , 413 L 601 , 414 L 601 , 421 L 602 , 422 L 602 , 440 L 603 , 441 L 603 , 442 L 602 , 443 L 602 , 458 L 601 , 459 L 601 , 460 L 602 , 461 L 602 , 468 L 601 , 469 L 601 , 483 L 600 , 484 L 600 , 485 L 601 , 486 L 601 , 494 L 600 , 495 L 600 , 511 L 599 , 512 L 599 , 520 L 600 , 521 L 599 , 522 L 599 , 525 L 598 , 526 L 598 , 527 L 597 , 528 L 597 , 533 L 596 , 534 L 596 , 542 L 595 , 543 L 595 , 556 L 594 , 557 L 594 , 558 L 593 , 559 L 593 , 564 L 592 , 565 L 592 , 567 L 590 , 569 L 590 , 570 L 588 , 572 L 586 , 572 L 584 , 570 L 584 , 566 L 583 , 565 L 583 , 564 L 582 , 563 L 582 , 562 L 581 , 561 L 581 , 560 L 580 , 559 L 580 , 558 L 575 , 553 L 575 , 551 L 574 , 550 L 574 , 542 L 575 , 541 L 575 , 539 L 573 , 537 L 571 , 537 L 563 , 545 L 563 , 546 L 564 , 546 L 565 , 547 L 565 , 550 L 564 , 551 L 562 , 551 L 561 , 552 L 561 , 553 L 560 , 554 L 560 , 558 L 559 , 559 L 559 , 563 L 558 , 564 L 558 , 567 L 557 , 568 L 557 , 571 L 556 , 572 L 556 , 574 L 555 , 575 L 555 , 578 L 554 , 579 L 552 , 577 L 552 , 575 L 551 , 574 L 551 , 573 L 549 , 571 L 549 , 570 L 548 , 569 L 548 , 568 L 547 , 567 L 547 , 566 L 546 , 565 L 546 , 564 L 545 , 563 L 545 , 561 L 541 , 557 L 541 , 556 L 540 , 555 L 540 , 553 L 539 , 552 L 539 , 550 L 538 , 549 L 538 , 548 L 537 , 547 L 537 , 545 L 536 , 544 L 536 , 537 L 538 , 535 L 538 , 533 L 537 , 532 L 535 , 532 L 534 , 533 L 533 , 533 L 531 , 535 L 530 , 535 L 526 , 539 L 522 , 539 L 520 , 537 L 520 , 536 L 518 , 534 L 519 , 533 L 517 , 531 L 517 , 530 L 516 , 529 L 516 , 528 L 515 , 527 L 515 , 524 L 514 , 523 L 514 , 521 L 513 , 520 L 513 , 519 L 512 , 518 L 512 , 516 L 511 , 515 L 511 , 511 L 510 , 510 L 510 , 508 L 509 , 507 L 509 , 503 L 508 , 502 L 508 , 499 L 507 , 498 L 507 , 495 L 506 , 494 L 506 , 490 L 505 , 489 L 505 , 485 L 504 , 484 L 504 , 480 L 503 , 479 L 503 , 474 L 502 , 473 L 502 , 470 L 501 , 469 L 501 , 466 L 500 , 465 L 500 , 460 L 499 , 459 L 499 , 454 L 498 , 453 L 498 , 449 L 497 , 448 L 497 , 443 L 496 , 442 L 496 , 435 L 495 , 434 L 495 , 428 L 494 , 427 L 494 , 425 L 493 , 424 L 493 , 416 L 492 , 415 L 492 , 411 L 491 , 410 L 491 , 409 L 490 , 408 L 490 , 406 L 489 , 405 L 489 , 391 L 488 , 390 L 488 , 386 L 487 , 385 L 487 , 372 L 486 , 371 L 486 , 366 L 485 , 365 L 485 , 362 L 484 , 361 L 484 , 358 L 483 , 357 L 484 , 356 L 484 , 355 L 483 , 354 L 483 , 348 L 482 , 347 L 482 , 343 L 481 , 342 L 481 , 337 L 480 , 336 L 480 , 332 L 479 , 331 L 479 , 326 L 478 , 325 L 478 , 324 L 477 , 323 L 477 , 322 L 478 , 321 L 477 , 321 L 476 , 320 L 477 , 319 L 477 , 316 L 476 , 315 L 476 , 311 L 475 , 310 L 475 , 307 L 474 , 306 L 474 , 304 L 473 , 303 L 473 , 297 L 472 , 296 L 472 , 291 L 471 , 290 L 471 , 288 L 470 , 287 L 470 , 285 L 469 , 284 L 469 , 283 L 467 , 281 L 465 , 281 L 462 , 284 L 462 , 285 L 461 , 286 L 461 , 289 L 460 , 290 L 460 , 294 L 461 , 295 L 461 , 299 L 462 , 300 L 462 , 303 L 461 , 304 L 461 , 327 L 462 , 328 L 462 , 331 L 463 , 332 L 463 , 335 L 464 , 336 L 464 , 339 L 463 , 340 L 463 , 341 L 464 , 342 L 464 , 352 L 465 , 353 L 465 , 359 L 466 , 360 L 466 , 371 L 467 , 372 L 467 , 377 L 468 , 378 L 468 , 383 L 469 , 384 L 469 , 396 L 470 , 397 L 470 , 403 L 471 , 404 L 471 , 407 L 472 , 408 L 472 , 410 L 473 , 411 L 473 , 417 L 474 , 418 L 474 , 419 L 475 , 420 L 475 , 421 L 474 , 422 L 473 , 422 L 474 , 423 L 474 , 424 L 473 , 425 L 474 , 426 L 474 , 429 L 475 , 430 L 475 , 450 L 476 , 451 L 476 , 464 L 477 , 465 L 477 , 480 L 478 , 481 L 478 , 505 L 477 , 506 L 477 , 514 L 476 , 515 L 476 , 518 L 475 , 519 L 476 , 520 L 476 , 526 L 475 , 527 L 475 , 529 L 474 , 530 L 474 , 534 L 473 , 535 L 473 , 538 L 474 , 539 L 474 , 543 L 473 , 544 L 473 , 547 L 472 , 548 L 472 , 553 L 471 , 554 L 471 , 556 L 470 , 557 L 470 , 559 L 469 , 560 L 469 , 562 L 468 , 563 L 468 , 565 L 467 , 566 L 467 , 568 L 466 , 569 L 466 , 571 L 465 , 572 L 465 , 574 L 464 , 575 L 464 , 576 L 463 , 577 L 463 , 578 L 462 , 579 L 461 , 579 L 460 , 580 L 458 , 580 L 457 , 579 L 457 , 578 L 456 , 577 L 456 , 575 L 455 , 574 L 455 , 572 L 454 , 571 L 454 , 570 L 453 , 569 L 453 , 567 L 452 , 566 L 452 , 564 L 451 , 563 L 451 , 559 L 450 , 558 L 450 , 556 L 448 , 554 L 448 , 545 L 447 , 544 L 447 , 542 L 445 , 540 L 445 , 539 L 444 , 538 L 444 , 537 L 445 , 536 L 445 , 535 L 444 , 534 L 444 , 523 L 443 , 522 L 443 , 521 L 441 , 519 L 440 , 519 L 439 , 520 L 439 , 521 L 438 , 522 L 438 , 534 L 439 , 535 L 439 , 536 L 438 , 537 L 439 , 538 L 438 , 539 L 438 , 540 L 439 , 541 L 439 , 544 L 440 , 545 L 439 , 546 L 440 , 547 L 440 , 548 L 439 , 549 L 439 , 551 L 437 , 553 L 437 , 554 L 435 , 556 L 435 , 558 L 434 , 559 L 434 , 564 L 431 , 567 L 430 , 567 L 429 , 566 L 428 , 566 L 424 , 562 L 424 , 560 L 423 , 559 L 423 , 558 L 422 , 557 L 422 , 555 L 421 , 554 L 421 , 552 L 420 , 551 L 420 , 550 L 419 , 549 L 419 , 547 L 418 , 546 L 418 , 544 L 415 , 541 L 411 , 541 L 403 , 549 L 402 , 549 L 401 , 550 L 399 , 550 L 398 , 549 L 397 , 549 L 393 , 545 L 393 , 544 L 392 , 543 L 392 , 542 L 391 , 541 L 391 , 540 L 390 , 539 L 390 , 538 L 388 , 536 L 388 , 535 L 387 , 535 L 386 , 534 L 385 , 534 L 384 , 535 L 383 , 535 L 382 , 536 L 382 , 537 L 379 , 540 L 379 , 541 L 377 , 543 L 377 , 545 L 376 , 546 L 376 , 547 L 372 , 551 L 372 , 552 L 366 , 558 L 365 , 558 L 364 , 559 L 360 , 559 L 359 , 558 L 358 , 558 L 350 , 550 L 350 , 549 L 349 , 548 L 349 , 546 L 348 , 545 L 348 , 543 L 347 , 542 L 347 , 541 L 346 , 540 L 346 , 538 L 345 , 537 L 345 , 534 L 344 , 533 L 344 , 531 L 343 , 530 L 343 , 528 L 342 , 527 L 342 , 526 L 341 , 525 L 341 , 523 L 340 , 522 L 340 , 520 L 339 , 519 L 339 , 517 L 338 , 516 L 338 , 515 L 337 , 514 L 337 , 512 L 336 , 511 L 336 , 510 L 335 , 509 L 335 , 508 L 334 , 507 L 334 , 505 L 333 , 504 L 333 , 502 L 332 , 501 L 332 , 499 L 331 , 498 L 331 , 497 L 329 , 495 L 329 , 494 L 326 , 491 L 326 , 490 L 324 , 488 L 323 , 488 L 322 , 487 L 319 , 487 L 317 , 489 L 317 , 490 L 316 , 491 L 316 , 493 L 315 , 494 L 315 , 495 L 314 , 496 L 314 , 515 L 313 , 516 L 313 , 519 L 312 , 520 L 312 , 534 L 311 , 535 L 311 , 537 L 310 , 538 L 310 , 543 L 309 , 544 L 309 , 545 L 308 , 546 L 308 , 547 L 305 , 550 L 302 , 550 L 298 , 546 L 298 , 545 L 297 , 544 L 297 , 543 L 296 , 542 L 296 , 541 L 295 , 540 L 295 , 538 L 294 , 537 L 294 , 534 L 293 , 533 L 293 , 528 L 292 , 527 L 292 , 520 L 291 , 519 L 291 , 514 L 290 , 513 L 290 , 501 L 289 , 500 L 289 , 483 L 288 , 482 L 288 , 472 L 289 , 471 L 289 , 470 L 288 , 469 L 288 , 451 L 287 , 450 L 287 , 447 L 286 , 446 L 286 , 422 L 285 , 421 L 285 , 411 L 284 , 410 L 284 , 409 L 285 , 408 L 285 , 404 L 284 , 403 L 284 , 381 L 283 , 380 L 283 , 377 L 281 , 375 L 281 , 370 L 282 , 369 L 282 , 357 L 281 , 356 L 281 , 332 L 280 , 331 L 280 , 325 L 279 , 324 L 279 , 318 L 280 , 317 L 279 , 316 L 279 , 313 L 278 , 312 L 278 , 303 L 277 , 302 L 277 , 299 L 276 , 298 L 276 , 293 L 277 , 292 L 277 , 290 L 276 , 289 L 276 , 285 L 277 , 284 L 277 , 283 L 276 , 282 L 276 , 280 L 275 , 279 L 275 , 276 L 276 , 275 L 276 , 272 L 275 , 271 L 275 , 267 L 274 , 266 L 274 , 265 L 273 , 264 L 273 , 263 L 272 , 262 L 272 , 261 L 272 , 262 L 271 , 263 L 270 , 262 L 270 , 259 L 272 , 257 L 273 , 257 L 272 , 256 L 272 , 253 L 271 , 252 L 271 , 247 L 270 , 246 L 271 , 245 L 271 , 244 L 270 , 243 L 270 , 238 L 269 , 237 L 269 , 236 L 266 , 233 L 265 , 233 L 263 , 235 L 263 , 236 L 262 , 237 L 262 , 256 L 263 , 257 L 263 , 265 L 264 , 266 L 264 , 272 L 265 , 273 L 265 , 276 L 264 , 277 L 264 , 281 L 265 , 282 L 265 , 285 L 266 , 286 L 266 , 290 L 265 , 291 L 265 , 295 L 266 , 296 L 266 , 299 L 267 , 300 L 267 , 301 L 268 , 302 L 268 , 305 L 269 , 306 L 268 , 307 L 268 , 318 L 269 , 319 L 269 , 324 L 270 , 325 L 270 , 327 L 271 , 328 L 271 , 329 L 270 , 330 L 271 , 331 L 271 , 332 L 270 , 333 L 270 , 334 L 271 , 335 L 270 , 336 L 270 , 338 L 271 , 339 L 270 , 340 L 270 , 342 L 271 , 343 L 271 , 354 L 272 , 355 L 272 , 358 L 273 , 359 L 273 , 370 L 274 , 371 L 274 , 374 L 275 , 375 L 274 , 376 L 273 , 376 L 273 , 377 L 274 , 377 L 275 , 378 L 274 , 379 L 274 , 388 L 275 , 389 L 275 , 395 L 274 , 396 L 274 , 407 L 275 , 408 L 274 , 409 L 275 , 410 L 275 , 426 L 277 , 428 L 276 , 429 L 276 , 431 L 275 , 432 L 275 , 442 L 274 , 443 L 274 , 448 L 273 , 449 L 273 , 462 L 274 , 463 L 274 , 464 L 273 , 465 L 273 , 470 L 272 , 471 L 272 , 482 L 271 , 483 L 271 , 493 L 270 , 494 L 270 , 502 L 269 , 503 L 269 , 505 L 268 , 506 L 268 , 508 L 267 , 509 L 267 , 511 L 266 , 512 L 266 , 514 L 265 , 515 L 265 , 519 L 264 , 520 L 264 , 522 L 256 , 530 L 252 , 530 L 249 , 527 L 249 , 526 L 248 , 525 L 248 , 524 L 247 , 523 L 247 , 522 L 246 , 521 L 246 , 520 L 245 , 519 L 245 , 517 L 244 , 516 L 244 , 514 L 243 , 513 L 243 , 511 L 242 , 510 L 242 , 508 L 241 , 507 L 241 , 503 L 240 , 502 L 240 , 499 L 239 , 498 L 239 , 495 L 238 , 494 L 238 , 492 L 237 , 491 L 237 , 488 L 236 , 487 L 236 , 480 L 235 , 479 L 235 , 475 L 234 , 474 L 234 , 470 L 233 , 469 L 233 , 467 L 232 , 466 L 232 , 464 L 231 , 463 L 231 , 460 L 230 , 459 L 230 , 456 L 229 , 455 L 229 , 450 L 228 , 449 L 228 , 446 L 227 , 445 L 227 , 438 L 226 , 437 L 226 , 434 L 225 , 433 L 225 , 431 L 224 , 430 L 224 , 428 L 223 , 427 L 223 , 420 L 222 , 419 L 222 , 416 L 221 , 415 L 221 , 411 L 220 , 410 L 220 , 405 L 219 , 404 L 219 , 402 L 218 , 401 L 218 , 394 L 217 , 393 L 217 , 391 L 215 , 389 L 215 , 380 L 214 , 379 L 214 , 376 L 213 , 375 L 213 , 372 L 212 , 371 L 212 , 367 L 211 , 366 L 211 , 360 L 210 , 359 L 210 , 355 L 209 , 354 L 209 , 351 L 208 , 350 L 208 , 347 L 207 , 346 L 207 , 341 L 206 , 340 L 206 , 336 L 205 , 335 L 205 , 332 L 204 , 331 L 204 , 327 L 203 , 326 L 204 , 325 L 203 , 324 L 203 , 318 L 204 , 317 L 202 , 315 L 202 , 314 L 201 , 313 L 201 , 309 L 200 , 308 L 200 , 304 L 199 , 303 L 199 , 299 L 198 , 298 L 198 , 293 L 197 , 292 L 197 , 287 L 196 , 286 L 196 , 283 L 195 , 282 L 195 , 273 L 194 , 272 L 194 , 268 L 193 , 267 L 193 , 263 L 192 , 262 L 192 , 257 L 191 , 256 L 191 , 252 L 190 , 251 L 190 , 249 L 189 , 248 L 189 , 245 L 188 , 244 L 188 , 231 L 187 , 230 L 187 , 229 L 186 , 228 L 186 , 227 L 185 , 226 L 184 , 226" /></svg>